<?xml version="1.0" standalone="no"?>
<!DOCTYPE svg PUBLIC "-//W3C//DTD SVG 20010904//EN"
 "http://www.w3.org/TR/2001/REC-SVG-20010904/DTD/svg10.dtd">
<svg version="1.0" xmlns="http://www.w3.org/2000/svg"
 width="616.000000pt" height="616.000000pt" viewBox="0 0 616.000000 616.000000"
 preserveAspectRatio="xMidYMid meet">
<metadata>
Created by potrace 1.11, written by Peter Selinger 2001-2013
</metadata>
<g transform="translate(0.000000,616.000000) scale(0.100000,-0.100000)"
fill="#000000" stroke="none">
<path d="M2577 6143 c-1 -1 -54 -4 -117 -8 -169 -9 -223 -13 -266 -19 -22 -3
-69 -8 -105 -10 -36 -3 -72 -7 -80 -10 -8 -3 -41 -7 -74 -10 -33 -3 -71 -8
-85 -10 -14 -3 -68 -12 -120 -21 -216 -36 -394 -79 -589 -140 -475 -149 -811
-393 -888 -645 -20 -65 -18 -57 -28 -145 -12 -101 -12 -95 9 -201 7 -38 75
-151 130 -217 l64 -78 -29 -87 c-38 -112 -94 -340 -114 -462 -66 -413 -21
-787 134 -1105 82 -167 239 -358 397 -481 46 -36 86 -75 89 -87 2 -12 50 -299
105 -637 55 -338 110 -669 121 -735 29 -176 74 -276 189 -420 127 -159 335
-305 560 -392 94 -36 337 -114 400 -128 8 -1 33 -8 55 -13 22 -6 74 -16 115
-22 41 -6 86 -14 100 -16 14 -2 50 -6 80 -9 30 -3 71 -8 90 -10 19 -3 143 -7
275 -9 234 -5 296 -1 575 38 292 40 667 185 877 340 130 95 218 190 295 316
25 41 55 138 82 265 14 66 46 210 71 320 25 110 48 214 51 230 3 17 71 323
150 680 240 1077 280 1259 339 1525 30 140 73 332 94 425 22 94 42 186 46 205
3 19 9 42 11 52 3 9 45 48 94 87 111 89 179 165 219 244 33 66 55 156 47 197
-3 14 -8 57 -12 95 -9 100 -9 99 -16 110 -3 6 -11 27 -18 49 -48 147 -286 358
-550 487 -64 31 -76 43 -78 83 -5 73 -21 103 -66 124 -55 26 -107 32 -346 36
-160 4 -207 8 -260 25 -64 20 -418 88 -575 111 -44 6 -91 13 -105 15 -14 3
-50 7 -80 10 -30 3 -65 8 -78 11 -13 3 -56 7 -95 9 -40 3 -92 7 -117 10 -25 3
-81 7 -125 10 -44 2 -125 7 -180 11 -87 6 -664 12 -668 7z m-1944 -2190 c9
-38 23 -107 31 -155 9 -48 18 -97 20 -110 3 -13 7 -36 10 -53 2 -16 11 -64 19
-105 9 -41 18 -86 21 -100 2 -14 9 -45 15 -70 13 -54 14 -157 2 -164 -24 -15
-80 87 -119 219 -41 137 -52 229 -52 421 0 173 1 184 19 184 14 0 22 -14 34
-67z"/>
</g>
</svg>
